<?xml version="1.0" encoding="utf-8"?>

<!DOCTYPE svg PUBLIC "-//W3C//DTD SVG 1.1//EN" "http://www.w3.org/Graphics/SVG/1.1/DTD/svg11.dtd">
<svg version="1.1" id="Layer_1" xmlns="http://www.w3.org/2000/svg" xmlns:xlink="http://www.w3.org/1999/xlink" x="0px" y="0px"
	 viewBox="0 0 2045.843 1720.102" enable-background="new 0 0 2045.843 1720.102" xml:space="preserve">
<g>
	<path d="M71.416,340.2c9.129,25.519,355.565,994.068,358.394,1001.976c49.351,0,1009.092,0,1052.455,0
		c0,0,143.313-824.72,174.137-1001.976C1633.196,340.2,75.803,340.2,71.416,340.2z M1403.902,1249.832c-2.096,0-71.7,0-73.44,0
		c0.016-0.172,5.5-59.251,5.5-59.251c2.659,0,72.256,0,75.54,0C1411.476,1190.78,1403.947,1249.476,1403.902,1249.832z
		 M491.203,1249.832c0,0-18.494-59.25-18.494-59.251c2.361,0,74.049,0,75.519,0c0.001,0.005,16.395,59.251,16.395,59.251
		C562.872,1249.832,493.294,1249.832,491.203,1249.832z M425.389,1038.976c2.203,0,78.635,0,80.888,0
		c0.133,0.48,16.388,59.226,16.396,59.256c-1.192,0-77.298,0-78.789,0C443.884,1098.231,425.389,1038.977,425.389,1038.976z
		 M354.403,811.56c10.433,0,86.682,0,88.947,0c0.054,0.197,16.325,58.992,16.398,59.256c-3.097,0-80.814,0-86.847,0
		C372.369,869.113,355.251,814.275,354.403,811.56z M1491.399,567.598c-1.485,0-95.997,0-97.605,0
		c0.263-2.828,5.238-56.426,5.501-59.254c0.662,0,97.192,0,99.704,0C1498.846,509.539,1491.554,566.381,1491.399,567.598z
		 M1481.678,643.4c-1.464,0-94.7,0-94.92,0c0.012-0.127,5.49-59.136,5.5-59.254c3.128,0,93.297,0,97.019,0
		C1488.595,589.457,1482.456,637.329,1481.678,643.4z M1462.233,795.01c-3.015,0-86.281,0-89.55,0
		c1.042-11.204,4.484-48.299,5.502-59.256c3.903,0,85.287,0,91.648,0C1469.533,738.098,1462.245,794.919,1462.233,795.01z
		 M1452.511,870.816c-14.985,0-77.426,0-86.866,0c3.627-39.049,5.492-59.164,5.501-59.256c9.249,0,74.395,0,88.964,0
		C1457.798,829.597,1455.74,845.643,1452.511,870.816z M1423.345,1098.232c-1.3,0-77.4,0-78.811,0
		c0.005-0.059,5.501-59.252,5.501-59.256c3.572,0,76.599,0,80.909,0C1430.653,1041.248,1424.085,1092.472,1423.345,1098.232z
		 M554.522,1174.033c-1.421-5.231-14.653-53.945-16.096-59.253c4.182,0,76.151,0,78.223,0c0.973,4.122,13.736,58.156,13.995,59.253
		C628.077,1174.033,557.083,1174.033,554.522,1174.033z M517.835,1038.976c2.178,0,78.723,0,80.908,0
		c0.01,0.041,13.987,59.215,13.997,59.256c-2.929,0-75.819,0-78.809,0C533.927,1098.216,517.839,1038.992,517.835,1038.976z
		 M1373.193,643.4c-3.242,0-90.742,0-94.908,0c0-0.001,3.101-59.253,3.101-59.254c1.548,0,95.348,0,97.005,0
		C1378.141,587.042,1373.324,641.897,1373.193,643.4z M1353.236,870.816c-0.866,0-84.365,0-86.85,0
		c0.023-0.436,3.091-59.052,3.102-59.256c0.836,0,88.112,0,88.948,0C1358.381,812.188,1353.411,868.812,1353.236,870.816z
		 M1346.585,946.622c-2.188,0-81.78,0-84.164,0c0.124-2.384,2.974-56.878,3.099-59.256c1.272,0,83.596,0,86.263,0
		C1351.079,895.417,1346.984,942.055,1346.585,946.622z M1333.279,1098.232c-3.357,0-75.447,0-78.791,0
		c0,0,3.101-59.254,3.101-59.256c2.19,0,78.707,0,80.889,0C1338.325,1040.73,1333.294,1098.061,1333.279,1098.232z
		 M624.005,1098.232c-0.012-0.052-13.677-59.175-13.696-59.256c4.958,0,79.155,0,80.899,0c3.29,16.805,11.386,58.174,11.597,59.256
		C699.968,1098.232,626.85,1098.232,624.005,1098.232z M699.613,1022.426c-0.227-1.2-11.105-58.247-11.297-59.254
		c3.189,0,80.41,0,83.598,0c0,0,7.793,50.225,9.196,59.254C779.635,1022.426,702.975,1022.426,699.613,1022.426z M1253.97,870.816
		c-0.823,0-86.1,0-86.859,0c0.014-1.145,0.689-58.153,0.702-59.256c3.818,0,85.155,0,88.956,0
		C1256.733,812.332,1254.235,865.241,1253.97,870.816z M1250.387,946.622c-3.676,0-80.482,0-84.172,0
		c0.098-8.07,0.655-55.385,0.701-59.256c3.509,0,84.713,0,86.272,0C1253.115,888.911,1250.561,942.956,1250.387,946.622z
		 M869.273,870.816c-0.2-1.825-6.417-58.539-6.496-59.256c0.917,0,86.46,0,88.961,0c0.009,0.115,4.365,58.812,4.398,59.256
		C953.797,870.816,871.62,870.816,869.273,870.816z M968.555,870.816c-0.245-3.543-3.849-55.658-4.099-59.256
		c1.215,0,87.738,0,88.957,0c0.37,10.891,1.812,53.741,1.999,59.256C1052.674,870.816,970.638,870.816,968.555,870.816z
		 M1067.825,870.816c-0.367-12.715-1.251-43.771-1.698-59.256c0.834,0,88.202,0,88.965,0c-0.007,1.053-0.395,58.203-0.402,59.256
		C1152.468,870.816,1070.227,870.816,1067.825,870.816z M1155.204,795.01c-1.34,0-88.177,0-89.551,0
		c0-0.002-1.699-59.256-1.699-59.256c0.877,0,89.638,0,91.651,0C1155.528,746.863,1155.207,794.582,1155.204,795.01z
		 M1050.856,735.754c0.177,5.229,1.965,58.251,1.999,59.256c-2.428,0-87.047,0-89.544,0c-0.002-0.032-4.077-58.968-4.097-59.256
		C960.51,735.754,1048.068,735.754,1050.856,735.754z M946.11,735.754c0.002,0.032,4.378,58.974,4.399,59.256
		c-0.928,0-87.661,0-89.548,0c-0.036-0.332-6.331-57.732-6.498-59.256C854.873,735.754,944.285,735.754,946.11,735.754z
		 M841.363,735.754c0.766,6.687,6.069,52.897,6.798,59.256c-1.658,0-87.202,0-89.548,0c-0.04-0.264-8.748-58.255-8.898-59.256
		C751.073,735.754,839.916,735.754,841.363,735.754z M850.06,811.56c0,0.001,6.796,59.255,6.796,59.256c-3.4,0-85.215,0-86.861,0
		c0,0-6.295-41.936-8.897-59.256C762.385,811.56,848.943,811.56,850.06,811.56z M781.378,946.622c-0.26-1.737-8.711-58-8.898-59.256
		c1.179,0,85.1,0,86.274,0c0,0.002,6.797,59.256,6.797,59.256C863.238,946.622,783.753,946.622,781.378,946.622z M877.588,946.622
		c-0.03-0.273-6.492-59.192-6.499-59.256c0.343,0,84.743,0,86.277,0c0.068,0.911,3.52,47.395,4.399,59.256
		C961.413,946.622,877.922,946.622,877.588,946.622z M973.797,946.622c-0.033-0.477-4.025-58.198-4.098-59.256
		c1.805,0,81.808,0,86.271,0c0.011,0.332,1.947,57.73,1.999,59.256C1055.659,946.622,975.67,946.622,973.797,946.622z
		 M1069.998,946.622c-0.087-3.025-1.61-56.192-1.699-59.256c3.048,0,83.127,0,86.279,0c0,0.001-0.401,59.255-0.401,59.256
		C1152.931,946.622,1071.464,946.622,1069.998,946.622z M1168.008,795.01c0.03-2.571,0.669-56.555,0.702-59.256
		c1.889,0,89.761,0,91.642,0c-0.455,9.655-2.799,59.256-2.799,59.256C1255.962,795.01,1169.551,795.01,1168.008,795.01z
		 M1261.134,719.204c-1.593,0-90.615,0-92.228,0c0.125-10.737,0.63-53.207,0.7-59.254c1.641,0,92.693,0,94.328,0
		C1263.92,660.245,1261.214,717.497,1261.134,719.204z M1155.717,719.204c-1.07,0-89.677,0-92.237,0
		c-0.06-2.064-1.656-57.773-1.699-59.254c1.092,0,90.231,0,94.337,0C1156.112,660.951,1155.728,717.53,1155.717,719.204z
		 M1048.299,659.95c0.196,5.823,1.982,58.776,1.998,59.254c-1.603,0-90.614,0-92.229,0c-0.421-6.116-3.763-54.388-4.098-59.254
		C956.029,659.95,1044.857,659.95,1048.299,659.95z M940.485,659.95c0.539,7.24,3.75,50.526,4.397,59.254
		c-3.731,0-87.571,0-92.234,0c-0.365-3.322-6.143-56.013-6.498-59.254C850.993,659.95,936.382,659.95,940.485,659.95z
		 M832.666,659.95c1.287,11.227,6.77,59.013,6.798,59.254c-3.175,0-87.93,0-92.235,0c-0.025-0.168-8.28-55.156-8.896-59.254
		C741.141,659.95,830.214,659.95,832.666,659.95z M724.852,659.95c0.008,0.05,9.194,59.24,9.196,59.254c-2.452,0-89.397,0-92.244,0
		c-0.014-0.073-11.283-59.181-11.297-59.254C636.344,659.95,724.329,659.95,724.852,659.95z M736.617,735.754
		c0.156,1,8.45,54.457,9.197,59.256c-2.452,0-87.141,0-89.558,0c-0.209-1.094-11.112-58.278-11.297-59.256
		C645.526,735.754,736.008,735.754,736.617,735.754z M748.382,811.56c1.279,8.231,9.194,59.233,9.198,59.256
		c-1.497,0-84.921,0-86.871,0c-0.002-0.011-11.297-59.256-11.297-59.256C662.322,811.56,744.459,811.56,748.382,811.56z
		 M760.149,887.366c0.141,0.905,8.784,56.592,9.197,59.256c-1.489,0-82.939,0-84.185,0c-0.237-1.25-11.106-58.255-11.297-59.256
		C677.144,887.366,757.149,887.366,760.149,887.366z M792.761,1022.426c0-0.001-8.897-59.254-8.897-59.254
		c3.414,0,79.676,0,83.587,0c0.525,4.56,6.497,56.632,6.799,59.254C873.537,1022.426,793.54,1022.426,792.761,1022.426z
		 M885.901,1022.426c-0.408-3.719-6.495-59.226-6.498-59.254c1.071,0,82.524,0,83.59,0c0.735,9.915,3.929,52.962,4.397,59.254
		C965.352,1022.426,886.914,1022.426,885.901,1022.426z M979.039,1022.426c-0.123-1.791-4.043-58.457-4.098-59.254
		c2.271,0,81.71,0,83.586,0c0.202,5.997,1.962,58.147,2,59.254C989.29,1022.426,986.581,1022.426,979.039,1022.426z
		 M1072.17,1022.426c-0.029-1.001-1.659-57.914-1.698-59.254c0.926,0,82.675,0,83.593,0c-0.008,1.11-0.344,50.711-0.4,59.254
		C1150.302,1022.426,1073.63,1022.426,1072.17,1022.426z M1166.019,963.172c3.118,0,80.481,0,83.585,0
		c-0.098,2.069-2.739,57.92-2.802,59.254c-0.988,0-79.944,0-81.484,0C1165.362,1018.807,1165.936,970.323,1166.019,963.172z
		 M1264.716,643.4c-2.599,0-92.187,0-94.915,0c0.001-0.053,0.701-59.166,0.702-59.254c2.631,0,94.449,0,97.015,0
		C1267.511,584.277,1264.724,643.238,1264.716,643.4z M1156.23,643.4c-1.401,0-93.523,0-94.923,0
		c-0.003-0.105-1.694-59.124-1.698-59.254c4.165,0,92.001,0,97.024,0C1156.628,584.518,1156.233,642.975,1156.23,643.4z
		 M1045.743,584.146c0.003,0.089,1.695,50.282,1.999,59.254c-2.388,0-92.526,0-94.915,0c-0.007-0.097-4.09-59.157-4.096-59.254
		C951.207,584.146,1042.783,584.146,1045.743,584.146z M934.859,584.146c0,0,4.397,59.25,4.397,59.254c-5.544,0-90.536,0-94.921,0
		c-0.025-0.229-6.493-59.203-6.499-59.254C839.472,584.146,933.088,584.146,934.859,584.146z M823.969,584.146
		c0.026,0.218,6.773,59.036,6.798,59.254c-1.281,0-93.279,0-94.918,0c-0.163-1.083-8.411-56.015-8.897-59.254
		C729.195,584.146,823.116,584.146,823.969,584.146z M713.086,584.146c0.005,0.035,9.191,59.219,9.196,59.254
		c-2.517,0-94.213,0-94.93,0c-0.191-1.005-11.205-58.783-11.295-59.254C617.033,584.146,712.11,584.146,713.086,584.146z
		 M602.192,584.146c0.478,2.439,11.493,58.72,11.597,59.254c-2.642,0-92.455,0-94.916,0c-2.012-8.7-13.464-58.252-13.695-59.253
		C506.93,584.147,601.934,584.146,602.192,584.146z M617.029,659.95c0,0,11.586,59.209,11.595,59.254c-5.436,0-88.522,0-92.23,0
		c-0.129-0.558-13.654-59.074-13.696-59.254C524.91,659.95,614.856,659.95,617.029,659.95z M631.864,735.754
		c0.416,2.125,11.253,57.506,11.596,59.256c-1.544,0-87.96,0-89.544,0c-0.253-1.093-11.464-49.595-13.695-59.256
		C542.471,735.754,630.705,735.754,631.864,735.754z M646.699,811.56c0,0,11.565,59.087,11.597,59.256c-0.71,0-85.052,0-86.859,0
		c-0.022-0.096-13.523-58.508-13.696-59.256C561.277,811.56,642.758,811.56,646.699,811.56z M661.536,887.366
		c0.035,0.176,11.547,59,11.597,59.256c-0.752,0-82.383,0-84.172,0c-0.416-1.801-13.257-57.35-13.698-59.256
		C579.49,887.366,658.194,887.366,661.536,887.366z M676.372,963.172c0,0.003,11.596,59.254,11.596,59.254
		c-0.695,0-79.476,0-81.485,0c0-0.001-13.696-59.253-13.696-59.254C595.899,963.172,673.248,963.172,676.372,963.172z
		 M714.067,1098.232c-0.206-1.082-11.2-58.734-11.299-59.256c1.445,0,79.554,0,80.912,0c0.458,2.946,8.876,57.181,9.197,59.256
		C791.177,1098.232,715.105,1098.232,714.067,1098.232z M804.144,1098.232c0,0-3.958-26.371-8.898-59.256c2.784,0,77.028,0,80.903,0
		c0.031,0.269,6.768,58.987,6.797,59.256C882.172,1098.232,805.651,1098.232,804.144,1098.232z M894.214,1098.232
		c-0.109-1.001-6.445-58.771-6.498-59.256c28.546,0,52.306,0,80.903,0c0.003,0.036,4.399,59.256,4.399,59.256
		C971.48,1098.232,896.016,1098.232,894.214,1098.232z M984.281,1098.232c-0.021-0.305-4.076-58.953-4.097-59.256
		c3.726,0,79.66,0,80.901,0c0.083,2.429,1.98,58.629,1.999,59.256C1059.512,1098.232,988.327,1098.232,984.281,1098.232z
		 M1074.343,1098.232c0,0-1.695-59.14-1.698-59.256c1.874,0,78.559,0,80.908,0c-0.03,4.573-0.392,58.292-0.4,59.256
		C1151.908,1098.232,1075.596,1098.232,1074.343,1098.232z M1165.123,1038.976c3.67,0,77.484,0,80.898,0
		c-0.071,1.509-2.663,56.297-2.801,59.256c-2.833,0-75.879,0-78.796,0C1164.424,1098.006,1165.12,1039.192,1165.123,1038.976z
		 M1359.888,795.01c-1.634,0-87.152,0-89.534,0c0.001-0.024,3.098-59.232,3.099-59.256c0.828,0,89.753,0,91.633,0
		C1364.948,737.324,1360.205,791.407,1359.888,795.01z M1366.54,719.204c-2.585,0-89.669,0-92.221,0
		c0.065-1.235,2.797-53.478,3.1-59.254c0.796,0,93.08,0,94.321,0C1371.653,660.95,1366.657,717.867,1366.54,719.204z
		 M1379.844,567.598c-1.524,0-95.907,0-97.591,0c0.002-0.042,3.098-59.212,3.1-59.254c2.159,0,97.532,0,99.69,0
		C1384.783,511.317,1379.976,566.1,1379.844,567.598z M1268.299,567.598c-3.897,0-96.004,0-97.601,0
		c0.012-1.005,0.652-55.212,0.701-59.254c1.271,0,97.951,0,99.701,0C1271.09,508.56,1268.331,566.925,1268.299,567.598z
		 M1156.744,567.598c-4.204,0-93.227,0-97.61,0c-0.033-1.153-1.62-56.577-1.697-59.254c3.609,0,95.172,0,99.708,0
		C1157.136,509.612,1156.789,560.761,1156.744,567.598z M1043.187,508.344c0.176,5.279,1.93,57.217,1.998,59.254
		c-1.593,0-96.042,0-97.6,0c-0.135-1.94-3.797-54.884-4.1-59.254C946.507,508.344,1041.572,508.344,1043.187,508.344z
		 M929.232,508.344c0.137,1.847,4.253,57.319,4.397,59.254c-2.696,0-94.91,0-97.609,0c-1.006-9.159-5.483-50.012-6.498-59.254
		C832.082,508.344,926.669,508.344,929.232,508.344z M815.275,508.344c0.217,1.895,4.08,35.561,6.796,59.254
		c-2.533,0-94.867,0-97.605,0c0-0.001-7.974-53.111-8.896-59.254C718.046,508.344,812.481,508.344,815.275,508.344z M701.32,508.344
		c0.017,0.111,9.179,59.143,9.196,59.254c-1.588,0-96.143,0-97.615,0c-0.905-4.743-10.121-53.086-11.298-59.254
		C602.868,508.344,698.449,508.344,701.32,508.344z M587.356,508.344c0,0.001,11.597,59.253,11.597,59.254
		c-1.652,0-93.677,0-97.599,0c-0.079-0.342-13.235-57.258-13.696-59.254C488.136,508.344,585.443,508.344,587.356,508.344z
		 M473.408,508.344c0.237,1.002,13.677,57.904,13.996,59.254c-1.657,0-96.1,0-97.607,0c-1.18-4.348-14.039-51.688-16.094-59.254
		C377.298,508.344,469.808,508.344,473.408,508.344z M491.313,584.146c0,0,13.996,59.252,13.996,59.253c-0.699,0-93.323,0-94.923,0
		c-0.202-0.746-15.929-58.644-16.095-59.254C397.034,584.146,489.368,584.146,491.313,584.146z M509.218,659.95
		c0.002,0.01,12.29,52.027,13.996,59.254c-4.948,0-88.021,0-92.237,0c-2.288-8.425-14.766-54.355-16.095-59.254
		C417.285,659.95,507.201,659.95,509.218,659.95z M527.123,735.754c0.077,0.327,13.808,58.461,13.995,59.256
		c-1.189,0-88.373,0-89.552,0c-0.006-0.022-16.089-59.234-16.095-59.256C436.158,735.754,524.929,735.754,527.123,735.754z
		 M545.027,811.56c1.905,8.065,13.94,59.011,13.998,59.256c-2.475,0-86.002,0-86.867,0c-0.167-0.619-15.913-58.576-16.096-59.256
		C456.899,811.56,544.19,811.56,545.027,811.56z M562.934,887.366c0,0.002,13.938,59.019,13.994,59.256c-3.882,0-80.816,0-84.179,0
		c-0.441-1.624-15.912-58.579-16.096-59.256C478.316,887.366,560.963,887.366,562.934,887.366z M580.838,963.172
		c0.82,3.475,12.604,53.367,13.996,59.254c-8.324,0-73.141,0-81.495,0c-1.458-5.371-14.615-53.805-16.095-59.254
		C498.398,963.172,579.537,963.172,580.838,963.172z M641.525,1174.033c-0.234-1.011-13.323-57.642-13.695-59.253
		c1.108,0,77.081,0,78.213,0c0.396,2.025,11.002,56.209,11.596,59.253C716.276,1174.033,642.363,1174.033,641.525,1174.033z
		 M728.518,1174.033c-1.4-7.337-11.106-58.253-11.297-59.253c4.024,0,74.589,0,78.225,0c0,0,9.188,59.203,9.196,59.253
		C802.98,1174.033,730.183,1174.033,728.518,1174.033z M815.526,1174.033c-0.134-0.893-8.897-59.253-8.897-59.253
		c3.431,0,74.81,0,78.214,0c0.49,4.271,6.542,57.03,6.797,59.253C889.675,1174.033,816.573,1174.033,815.526,1174.033z
		 M902.525,1174.033c-0.005-0.043-6.491-59.21-6.496-59.253c2.115,0,76.094,0,78.216,0c0.38,5.112,4.004,53.972,4.398,59.253
		C977.02,1174.033,904.126,1174.033,902.525,1174.033z M989.525,1174.033c-0.079-1.135-4.082-58.986-4.1-59.253
		c3.363,0,74.753,0,78.216,0c0.051,1.492,1.96,58.129,1.999,59.253C1062.948,1174.033,992.195,1174.033,989.525,1174.033z
		 M1076.516,1174.033c-0.054-1.877-1.644-57.359-1.698-59.253c3.421,0,74.877,0,78.222,0c-0.006,0.871-0.389,57.679-0.4,59.253
		C1152.056,1174.033,1078.565,1174.033,1076.516,1174.033z M1164.227,1114.78c3.169,0,75.065,0,78.209,0
		c0,0.001-2.8,59.252-2.8,59.253c-1.292,0-74.056,0-76.112,0C1163.573,1170.104,1164.187,1118.207,1164.227,1114.78z
		 M1253.622,1114.78c2.938,0,73.251,0,78.205,0c-0.171,1.958-5.027,57.289-5.199,59.253c-2.14,0-73.975,0-76.106,0
		C1250.62,1172.145,1253.523,1116.67,1253.622,1114.78z M1339.932,1022.426c-3.516,0-77.831,0-81.476,0
		c0.012-0.236,3.078-58.839,3.1-59.254c0.748,0,81.949,0,83.576,0C1345.125,963.248,1340.185,1019.537,1339.932,1022.426z
		 M1386.496,491.796c-2.803,0-98.043,0-100.277,0c0.028-0.537,2.992-57.192,3.101-59.252c1.863,0,100.282,0,102.376,0
		C1391.578,433.882,1386.521,491.501,1386.496,491.796z M1271.883,491.796c-0.72,0-99.569,0-100.289,0
		c0.004-0.331,0.698-58.921,0.702-59.252c2.843,0,99.476,0,102.388,0C1274.613,434.003,1271.931,490.796,1271.883,491.796z
		 M1157.258,491.796c-2.345,0-98.598,0-100.296,0c-0.054-1.869-1.68-58.613-1.699-59.252c1.323,0,101.012,0,102.396,0
		C1157.627,437.686,1157.292,486.739,1157.258,491.796z M1040.63,432.544c0,0.015,1.998,59.237,1.999,59.252
		c-0.749,0-98.176,0-100.289,0c-0.044-0.624-3.957-57.225-4.098-59.252C940.602,432.544,1038.654,432.544,1040.63,432.544z
		 M923.608,432.544c0.064,0.87,4.242,57.175,4.397,59.252c-3.901,0-96.41,0-100.295,0c0,0-6.497-59.25-6.497-59.252
		C823.155,432.544,921.694,432.544,923.608,432.544z M806.58,432.544c0.469,4.071,6.645,57.93,6.798,59.252
		c-2.487,0-99.158,0-100.292,0c-0.839-5.602-7.831-52.147-8.896-59.252C706.256,432.544,804.506,432.544,806.58,432.544z
		 M689.556,432.544c0,0.002,8.568,55.204,9.196,59.252c-1.281,0-98.831,0-100.302,0c-1.839-9.653-11.124-58.351-11.296-59.252
		C591.347,432.544,685.412,432.544,689.556,432.544z M572.521,432.544c0,0,8.049,41.133,11.597,59.252c-1.04,0-98.188,0-100.284,0
		c-0.555-2.397-13.628-58.956-13.696-59.253C477.042,432.543,572.248,432.544,572.521,432.544z M455.504,432.544
		c0.088,0.374,13.908,58.88,13.996,59.253c-6.518,0-97.344,0-100.293,0c-0.004-0.013-16.093-59.239-16.096-59.252
		C457.812,432.545,455.465,432.544,455.504,432.544z M338.477,432.544c0,0,16.198,58.541,16.395,59.252c-2.418,0-97.737,0-100.278,0
		c-0.755-2.418-16.814-53.86-18.495-59.252C239.304,432.544,335.959,432.544,338.477,432.544z M359.45,508.344
		c7.881,28.488,16.394,59.247,16.396,59.254c-5.004,0-93.85,0-97.592,0c-0.528-1.689-18.308-58.656-18.495-59.254
		C261.438,508.344,357.515,508.344,359.45,508.344z M380.426,584.146c0.007,0.026,16.3,58.911,16.395,59.254
		c-0.207,0-93.462,0-94.906,0c-1.048-3.361-18.402-58.956-18.495-59.254C286.722,584.146,376.183,584.146,380.426,584.146z
		 M401.401,659.95c0,0.001,16.395,59.254,16.395,59.254c-2.445,0-89.774,0-92.219,0c0,0-18.495-59.252-18.496-59.254
		C307.622,659.95,400.86,659.95,401.401,659.95z M422.376,735.754c0.006,0.022,16.389,59.234,16.395,59.256
		c-3.686,0-85.484,0-89.534,0c-0.124-0.397-18.338-58.757-18.496-59.256C333.231,735.754,420.076,735.754,422.376,735.754z
		 M464.327,887.366c0.006,0.022,16.39,59.234,16.396,59.256c-3.473,0-80.833,0-84.16,0c-0.004-0.012-18.295-58.609-18.495-59.256
		C379.031,887.366,462.536,887.366,464.327,887.366z M485.303,963.172c0,0,16.352,59.099,16.395,59.254c-2.066,0-79.149,0-81.476,0
		c0,0-16.842-53.954-18.495-59.254C404.267,963.172,483.585,963.172,485.303,963.172z M527.254,1114.78
		c0.277,1,12.255,44.278,16.397,59.253c-3.33,0-73.407,0-76.106,0c-0.813-2.606-17.686-56.663-18.494-59.253
		C449.951,1114.78,525.527,1114.78,527.254,1114.78z M575.113,1249.832c-0.008-0.028-16.076-59.18-16.095-59.251
		c1.94,0,73.569,0,75.535,0c0.001,0.003,13.996,59.251,13.996,59.251C645.762,1249.832,577.906,1249.832,575.113,1249.832z
		 M659.046,1249.832c-0.225-0.977-13.526-58.514-13.697-59.251c1.079,0,74.206,0,75.529,0c0.165,0.846,11.408,58.281,11.597,59.251
		C728.964,1249.832,662.469,1249.832,659.046,1249.832z M742.969,1249.832c-0.003-0.013-11.292-59.227-11.297-59.251
		c0.633,0,74.207,0,75.538,0c0.2,1.289,9.166,59.059,9.196,59.251C812.694,1249.832,743.737,1249.832,742.969,1249.832z
		 M826.907,1249.832c-0.819-5.464-7.961-53.011-8.896-59.251c1.539,0,74.737,0,75.528,0c0.031,0.274,6.636,57.848,6.797,59.251
		C896.693,1249.832,830.42,1249.832,826.907,1249.832z M910.836,1249.832c0-0.001-6.496-59.25-6.496-59.251
		c2.905,0,72.969,0,75.531,0c0.063,0.852,4.341,58.499,4.397,59.251C980.587,1249.832,913.499,1249.832,910.836,1249.832z
		 M994.767,1249.832c-0.078-1.12-4.001-57.85-4.097-59.251c2.141,0,73.663,0,75.527,0c0.022,0.654,1.956,57.973,1.999,59.251
		C1064.973,1249.832,997.977,1249.832,994.767,1249.832z M1078.689,1249.832c0-0.001-1.698-59.251-1.698-59.251
		c0.437,0,74.45,0,75.538,0c-0.021,3.084-0.382,56.159-0.402,59.251C1150.499,1249.832,1099.628,1249.832,1078.689,1249.832z
		 M1163.33,1190.581c0.987,0,74.424,0,75.524,0c0,0-2.558,54.137-2.801,59.251c-0.938,0-72.487,0-73.424,0
		C1162.647,1248.378,1163.292,1193.797,1163.33,1190.581z M1249.656,1190.581c2.782,0,72.746,0,75.52,0
		c-0.058,0.659-5.143,58.608-5.199,59.251c-3.218,0-72.146,0-73.422,0C1246.644,1248.156,1249.615,1191.355,1249.656,1190.581z
		 M1413.623,1174.033c-2.039,0-73.976,0-76.127,0c0.093-1.001,4.796-51.67,5.501-59.253c1.193,0,77.217,0,78.225,0
		C1421.222,1114.78,1414.48,1167.368,1413.623,1174.033z M1433.066,1022.426c-10.866,0-70.631,0-81.495,0
		c0.254-2.742,5.188-55.883,5.5-59.254c0.47,0,77.812,0,83.595,0C1440.538,964.172,1433.301,1020.603,1433.066,1022.426z
		 M1442.789,946.622c-3.229,0-80.057,0-84.181,0c0.113-1.216,5.387-58.022,5.501-59.256c0.829,0,85.246,0,86.28,0
		C1450.385,887.397,1442.794,946.583,1442.789,946.622z M1471.955,719.204c-1.127,0-90.671,0-92.234,0
		c0.108-1.171,5.481-59.051,5.5-59.254c0.864,0,93.526,0,94.334,0C1479.54,660.064,1471.97,719.087,1471.955,719.204z
		 M1501.121,491.796c-1.749,0-98.616,0-100.291,0c0,0,5.499-59.25,5.499-59.252c5.191,0,99.369,0,102.391,0
		C1508.603,433.458,1501.361,489.926,1501.121,491.796z M1518.442,356.751c-0.136,1.065-6.712,52.321-7.599,59.245
		c-1.378,0-101.605,0-102.977,0c0.226-2.436,5.171-55.685,5.499-59.245C1415.021,356.751,1516.44,356.751,1518.442,356.751z
		 M1398.347,356.751c0,0-3.25,37.046-5.199,59.245c-3.614,0-98.731,0-102.963,0c0.038-0.724,3.065-58.574,3.101-59.245
		C1295.104,356.751,1396.524,356.751,1398.347,356.751z M1278.267,356.751c-0.001,0.026-2.8,59.219-2.801,59.245
		c-1.594,0-97.688,0-102.975,0c0.003-0.222,0.699-59.205,0.7-59.245C1177.331,356.751,1273.816,356.751,1278.267,356.751z
		 M1158.173,356.751c-0.002,0.254-0.4,59.138-0.401,59.245c-2.797,0-101.402,0-102.982,0c-0.1-3.5-1.668-58.245-1.698-59.245
		C1055.706,356.751,1154.995,356.751,1158.173,356.751z M1038.074,356.751c0.058,1.72,1.895,56.16,1.998,59.245
		c-1.124,0-100.139,0-102.974,0c-0.022-0.316-4.094-59.21-4.096-59.245C934.64,356.751,1035.875,356.751,1038.074,356.751z
		 M917.984,356.751c0.002,0.026,4.394,59.219,4.396,59.245c-4.917,0-98.966,0-102.982,0c-0.233-2.119-6.487-59.165-6.496-59.245
		C817.165,356.751,914.873,356.751,917.984,356.751z M797.884,356.751c0,0,6.22,54.218,6.798,59.245c-3.049,0-94.684,0-102.978,0
		c-1.04-6.919-8.895-59.245-8.895-59.245C696.967,356.751,791.338,356.751,797.884,356.751z M677.792,356.751
		c0.018,0.12,8.631,55.611,9.196,59.245c-1.901,0-98.646,0-102.989,0c0,0-11.293-59.244-11.293-59.246
		C576.321,356.751,674.149,356.751,677.792,356.751z M557.687,356.751c0.01,0.049,11.586,59.197,11.596,59.246
		c-2.77,0-100.208,0-102.97,0c-0.362-1.564-13.52-58.495-13.694-59.246C453.37,356.751,557.03,356.751,557.687,356.751z
		 M437.6,356.751c0.092,0.39,13.881,58.76,13.995,59.246c-2.301,0-100.888,0-102.98,0c-0.12-0.443-15.947-58.708-16.093-59.245
		C335.139,356.751,434.453,356.751,437.6,356.751z M317.505,356.751c0.276,1,16.007,57.848,16.394,59.245
		c-0.891,0-102.074,0-102.965,0c-0.003-0.01-18.284-58.583-18.491-59.246C215.796,356.752,314.901,356.751,317.505,356.751z
		 M92.356,356.751c2.957,0,102.155,0,105.069,0c0.297,0.94,18.521,58.387,18.793,59.246c-0.255,0-101.209,0-102.972,0
		C113.223,415.932,92.405,356.89,92.356,356.751z M119.081,432.544c0.561,0,100.619,0,102.386,0
		c0.791,2.492,18.004,56.766,18.793,59.252c-0.801,0-99.255,0-100.286,0C139.877,491.521,120.049,435.288,119.081,432.544z
		 M145.809,508.344c6.356,0,96.661,0,99.699,0c0.318,1,15.916,50.173,18.796,59.254c-1.696,0-96.169,0-97.604,0
		C164.771,562.129,147.749,513.843,145.809,508.344z M172.536,584.146c1.558,0,95.455,0,97.017,0
		c0.001,0.002,18.796,59.254,18.796,59.254c-1.651,0-93.791,0-94.919,0C189.247,631.537,172.536,584.146,172.536,584.146z
		 M199.266,659.95c4.618,0,90.523,0,94.332,0c0,0.001,18.794,59.253,18.794,59.254c-1.542,0-90.633,0-92.232,0
		C220.152,719.182,199.274,659.972,199.266,659.95z M225.996,735.754c0.942,0,89.472,0,91.646,0
		c0.122,0.38,18.669,58.858,18.795,59.256c-0.752,0-88.624,0-89.546,0C245.977,792.419,226.907,738.339,225.996,735.754z
		 M252.728,811.56c1.123,0,87.858,0,88.957,0c0.404,1.274,18.243,57.515,18.794,59.256c-3.864,0-83.121,0-86.857,0
		C273.553,870.622,252.823,811.83,252.728,811.56z M279.459,887.366c3.588,0,82.281,0,86.27,0
		c0.056,0.176,18.736,59.077,18.795,59.256c-3.519,0-82.581,0-84.169,0C300.346,946.596,279.503,887.492,279.459,887.366z
		 M306.191,963.172c1.199,0,82.031,0,83.583,0c1.047,3.305,18.585,58.596,18.794,59.254c-1.553,0-80.477,0-81.484,0
		C326.892,1021.882,306.2,963.198,306.191,963.172z M332.921,1038.975c2.739,0,77.475,0,80.896,0
		c3.72,11.733,11.831,37.29,18.797,59.256c-1.315,0-76.627,0-78.797,0C353.078,1096.138,333.665,1041.081,332.921,1038.975z
		 M359.651,1114.78c3.665,0,75.245,0,78.212,0c0,0.001,18.795,59.253,18.795,59.253c-1.451,0-74.311,0-76.115,0
		C379.958,1172.373,360.197,1116.323,359.651,1114.78z M386.379,1190.581c1.715,0,74.648,0,75.529,0
		c0.52,1.639,17.99,56.719,18.793,59.251c-3.077,0-70.669,0-73.429,0C406.774,1248.419,386.919,1192.118,386.379,1190.581z
		 M434.004,1325.629c-0.002-0.005-20.897-59.249-20.897-59.249c1.706,0,70.635,0,72.843,0c0.671,2.111,18.127,57.147,18.794,59.249
		C502.027,1325.629,437.634,1325.629,434.004,1325.629z M514.861,1325.629c-0.238-0.768-18.254-58.482-18.493-59.249
		c0.889,0,71.945,0,72.834,0c0.045,0.162,16.312,58.95,16.394,59.249C581.74,1325.629,518.717,1325.629,514.861,1325.629z
		 M595.703,1325.629c-0.439-1.609-15.667-57.672-16.095-59.249c3.223,0,69.692,0,72.849,0c0.006,0.024,13.989,59.225,13.995,59.249
		C663.672,1325.629,600.24,1325.629,595.703,1325.629z M676.565,1325.629c-0.097-0.42-13.537-58.568-13.695-59.249
		c3.326,0,69.821,0,72.844,0c0,0,11.39,58.193,11.596,59.249C746.26,1325.629,677.566,1325.629,676.565,1325.629z M757.419,1325.629
		c-0.123-0.645-11.27-59.12-11.295-59.249c0.78,0,70.866,0,72.85,0c0.65,4.181,9.1,58.635,9.196,59.249
		C826.371,1325.629,759.231,1325.629,757.419,1325.629z M838.286,1325.629c-0.125-0.84-8.768-58.402-8.895-59.249
		c1.19,0,68.996,0,72.843,0c0.115,1.001,5.91,51.525,6.797,59.249C905.182,1325.629,840.312,1325.629,838.286,1325.629z
		 M919.147,1325.629c-0.079-0.736-6.269-57.183-6.496-59.249c0.752,0,72.092,0,72.844,0c1.921,25.873,3.913,52.742,4.396,59.249
		C987.466,1325.629,921.555,1325.629,919.147,1325.629z M1000.009,1325.629c-0.049-0.728-4.05-58.568-4.097-59.249
		c0.667,0,71.437,0,72.842,0c0.081,2.401,1.877,55.637,1.998,59.249C1069.131,1325.629,1001.088,1325.629,1000.009,1325.629z
		 M1080.862,1325.629c-0.009-0.298-1.69-58.938-1.699-59.249c1.052,0,71.389,0,72.851,0c-0.01,1.474-0.312,46.179-0.402,59.249
		C1150.388,1325.629,1082.436,1325.629,1080.862,1325.629z M1161.731,1325.629c0.021-1.486,0.595-50.253,0.702-59.249
		c1.001,0,71.445,0,72.839,0c-0.047,1.001-2.742,57.983-2.802,59.249C1230.924,1325.629,1162.126,1325.629,1161.731,1325.629z
		 M1242.588,1325.629c0.184-3.483,2.919-55.771,3.101-59.249c2.71,0,69.586,0,72.834,0c-0.55,6.285-4.962,56.565-5.199,59.249
		C1310.649,1325.629,1245.262,1325.629,1242.588,1325.629z M1323.428,1325.629c0.128-1.428,5.364-57.822,5.497-59.249
		c9.14,0,63.886,0,72.855,0c0,0.001-7.599,59.248-7.599,59.249C1390.787,1325.629,1327.171,1325.629,1323.428,1325.629z
		 M1475.023,1325.629c-3.275,0-67.771,0-70.73,0c0.633-4.736,7.124-53.44,7.898-59.249c1.129,0,71.482,0,72.829,0
		C1485.02,1266.38,1475.027,1325.608,1475.023,1325.629z M1487.813,1249.832c-0.427,0-72.377,0-73.415,0
		c0.695-5.226,7.256-54.422,7.899-59.251c0.759,0,73.536,0,75.516,0C1497.44,1192.786,1487.875,1249.464,1487.813,1249.832z
		 M1500.605,1174.033c-1.605,0-74.491,0-76.102,0c0.035-0.264,7.865-58.989,7.9-59.253c3.783,0,74.456,0,78.201,0
		C1510.604,1114.78,1506.554,1138.789,1500.605,1174.033z M1513.397,1098.232c-3.692,0-77.527,0-78.787,0
		c3.408-25.582,7.885-59.156,7.898-59.256c3.985,0,78.332,0,80.887,0C1523.312,1039.469,1513.43,1098.037,1513.397,1098.232z
		 M1526.188,1022.426c-1,0-79.899,0-81.473,0c0.014-0.108,7.885-59.146,7.9-59.254c1.069,0,81.348,0,83.573,0
		C1535.998,964.301,1526.2,1022.355,1526.188,1022.426z M1538.98,946.622c-2.254,0-81.907,0-84.158,0
		c0.392-2.95,7.802-58.529,7.899-59.256c3.975,0,82.822,0,86.256,0C1548.958,887.476,1539.003,946.485,1538.98,946.622z
		 M1551.772,870.816c-2.471,0-85.346,0-86.843,0c0.583-4.372,6.122-45.911,7.9-59.256c1.256,0,87.03,0,88.945,0
		C1559.725,823.689,1551.772,870.815,1551.772,870.816z M1564.564,795.01c-2.825,0-88.32,0-89.531,0
		c0.201-1.502,7.766-58.255,7.9-59.256c3.106,0,88.063,0,91.63,0C1574.267,737.503,1564.81,793.563,1564.564,795.01z
		 M1577.355,719.204c-0.794,0-89.989,0-92.216,0c0.016-0.123,7.885-59.146,7.899-59.254c0.793,0,93.308,0,94.316,0
		C1587.352,659.958,1577.645,717.485,1577.355,719.204z M1590.147,643.4c-1.508,0-92.901,0-94.902,0
		c1.25-9.373,7.133-53.505,7.899-59.254c2.268,0,94.793,0,97.003,0C1599.057,590.606,1590.998,638.35,1590.147,643.4z
		 M1602.938,567.598c-2.199,0-95.165,0-97.589,0c0.213-1.596,7.689-57.672,7.9-59.254c3.069,0,93.427,0,99.688,0
		C1612.93,508.384,1602.945,567.558,1602.938,567.598z M1615.73,491.796c-1.031,0-99.481,0-100.275,0
		c0.047-0.357,7.776-58.32,7.9-59.252c0.38,0,100.285,0,102.374,0C1625.729,432.544,1615.73,491.795,1615.73,491.796z
		 M1628.522,415.996c-0.281,0-101.223,0-102.961,0c0.236-1.769,7.845-58.849,7.898-59.245c2.913,0,102.106,0,105.062,0
		C1638.165,358.862,1628.851,414.04,1628.522,415.996z"/>
	<path d="M547.594,1387.739c-75.197,0-136.156,60.959-136.156,136.156s60.959,136.156,136.156,136.156
		s136.156-60.959,136.156-136.156S622.791,1387.739,547.594,1387.739z M547.594,1602.135c-43.211,0-78.24-35.029-78.24-78.24
		s35.029-78.24,78.24-78.24s78.24,35.029,78.24,78.24S590.804,1602.135,547.594,1602.135z"/>
	<path d="M1345.176,1387.739c-75.197,0-136.156,60.959-136.156,136.156s60.959,136.156,136.156,136.156
		s136.156-60.959,136.156-136.156S1420.373,1387.739,1345.176,1387.739z M1345.176,1602.135c-43.211,0-78.24-35.029-78.24-78.24
		s35.029-78.24,78.24-78.24s78.24,35.029,78.24,78.24S1388.387,1602.135,1345.176,1602.135z"/>
	<path d="M1944.178,60.051h-136.534c-18.935,0-36.76,8.934-48.091,24.104c-122.533,164.036-124.575,159.837-118.948,179.902
		c5.414,19.304,19.114,21.017,65.695,39.754c15.994,6.433,34.295,0.354,43.26-14.371l77.941-128.016
		c41.051-67.429,146.917,1.31,146.917-60.641V90.291C1974.418,73.59,1960.879,60.051,1944.178,60.051z"/>
</g>
</svg>
